<svg version="1.1" xmlns="http://www.w3.org/2000/svg" style="display: block;" viewBox="0 0 2048 2048" width="1024" height="1024" preserveAspectRatio="none">
<path transform="translate(0,0)" fill="rgb(63,28,8)" d="M 0 0 L 190.447 0 L 201.771 0 L 250.046 0 L 260.663 0 L 295.822 0 L 306.085 0 L 422.773 0 L 431.217 0 L 570.154 0 L 580.931 0 L 635.975 0 L 645.928 0 L 741.132 0 L 750.569 0 L 867.476 0 L 876.969 0 L 999.08 0 L 1008.03 0 L 1126.02 0 L 1134.79 0 L 1212.56 0 L 1222.61 0 L 1264.14 0 L 1273.6 0 L 1311.95 0 L 1320.71 0 L 1374.87 0 L 1384.88 0 L 1521.41 0 L 1531.02 0 L 1576.44 0 L 1585.64 0 L 1620.25 0 L 1629.7 0 L 1667.63 0 L 1677.97 0 L 1704.91 0 L 1715.83 0 L 1749.88 0 L 1760.22 0 L 1822.11 0 L 1832.6 0 L 2048 0 L 2048 2048 L 657.168 2048 L 640.906 2048 L 0 2048 L 0 0 z"/>
<path transform="translate(0,0)" fill="rgb(248,232,200)" d="M 1832.6 0 L 2048 0 L 2048 2048 L 657.168 2048 C 675.132 2039.12 701.437 2029.4 720.378 2021.43 C 762.374 2003.3 804.53 1985.55 846.84 1968.16 L 1149.57 1840.37 C 1289.96 1780.75 1430.05 1720.41 1569.82 1659.37 C 1645.71 1625.56 1721.81 1592.21 1798.11 1559.33 C 1828.74 1546.39 1860.64 1535.96 1890.72 1523.43 C 1890.49 1508.28 1892.59 1372.26 1890.1 1365.21 C 1885.89 1361.06 1880.45 1361.14 1874.68 1360.6 C 1859.37 1262.82 1848.04 1163.88 1833.7 1065.93 C 1831.23 1049.01 1832.17 1025.22 1832.16 1007.75 L 1832.23 924.164 L 1832.4 688.315 L 1832.6 0 z"/>
<path transform="translate(0,0)" fill="rgb(248,232,200)" d="M 0 0 L 190.447 0 C 191.457 60.6133 190.723 122.998 190.799 183.745 L 190.887 582.753 L 191.596 1625.13 C 183.964 1628.74 163.053 1635.94 159.442 1640.72 C 157.753 1648.92 158.233 1686.82 158.503 1697.96 C 159.388 1734.4 156.415 1779.85 158.907 1815.54 C 197.811 1832.11 242.459 1854.81 280.725 1873.66 L 390.962 1926.77 C 473.68 1966.94 559.364 2005.57 640.906 2048 L 0 2048 L 0 0 z"/>
<path transform="translate(0,0)" fill="rgb(248,232,200)" d="M 645.928 0 L 741.132 0 L 740.96 1799.65 C 710.482 1812.44 676.873 1826.14 645.768 1837.2 L 645.928 0 z"/>
<path transform="translate(0,0)" fill="rgb(208,175,134)" d="M 580.931 0 L 635.975 0 L 635.671 1831.23 C 619.175 1824.62 596.78 1813.92 580.965 1806.14 C 579.546 1719.92 580.86 1630.06 580.948 1543.56 L 580.854 1122.87 L 580.931 0 z"/>
<path transform="translate(0,0)" fill="rgb(208,175,134)" d="M 201.771 0 L 250.046 0 L 250.913 1096.83 L 250.962 1468.58 C 251.047 1528.55 253.404 1597.95 251.378 1657.09 C 234.735 1650.2 218.881 1642.12 202.961 1633.72 L 201.771 0 z"/>
<path transform="translate(0,0)" fill="rgb(208,175,134)" d="M 1222.61 0 L 1264.14 0 C 1352.45 523.711 1438.02 1047.88 1520.84 1572.49 C 1504.86 1570.66 1488.01 1568.08 1472.05 1565.8 C 1467.27 1525.26 1460.62 1487.01 1454.57 1446.85 L 1429.78 1279.4 C 1404.14 1102.12 1375.77 925.254 1344.68 748.854 L 1222.61 0 z"/>
<path transform="translate(0,0)" fill="rgb(248,232,200)" d="M 1273.6 0 L 1311.95 0 C 1327.93 108.674 1348.29 219.45 1366.44 327.969 C 1389.86 476.389 1414.02 624.689 1438.93 772.865 L 1563.33 1553.51 C 1552.62 1557.76 1541.21 1562.87 1530.54 1567.42 C 1525.16 1544.53 1521.32 1516.71 1517.64 1493.4 L 1503.45 1406.69 L 1452.1 1082.44 L 1273.6 0 z"/>
<path transform="translate(0,0)" fill="rgb(248,232,200)" d="M 1629.7 0 L 1667.63 0 C 1673.64 47.1613 1684.21 100.158 1691.62 147.508 L 1748.18 514.334 L 1875.42 1431.03 C 1864.17 1435.7 1852.88 1440.28 1841.56 1444.78 C 1837.97 1413.43 1833.83 1382.59 1829.39 1351.33 C 1816.15 1258.32 1801.17 1165.68 1789.92 1072.37 C 1787.69 1053.85 1783.99 1035.31 1781.48 1016.8 C 1737.13 676.961 1686.53 337.972 1629.7 0 z"/>
<path transform="translate(0,0)" fill="rgb(248,232,200)" d="M 1760.22 0 L 1822.11 0 L 1822.11 589.65 L 1822.14 784.796 C 1822.3 827.856 1823.55 881.171 1821.87 923.877 C 1820.36 932.369 1821.81 950.303 1819.33 954.786 C 1813.16 905.577 1806.33 856.45 1798.86 807.421 L 1783.3 696.402 C 1777.8 660.082 1772.79 623.688 1768.3 587.23 C 1767.3 579.564 1766.52 571.356 1765.26 563.779 C 1758.54 523.291 1759.74 483.002 1759.63 442.091 L 1760.6 279.319 C 1761.13 186.213 1761 93.1043 1760.22 -2.84217e-14 z"/>
<path transform="translate(0,0)" fill="rgb(208,175,134)" d="M 431.217 0 L 570.154 0 L 570.029 339.264 C 525.119 325.818 476.168 313.473 430.735 301.428 L 431.217 0 z"/>
<path transform="translate(0,0)" fill="rgb(208,175,134)" d="M 306.085 0 L 422.773 0 C 423.299 99.7322 423.166 199.467 422.375 299.197 C 383.84 288.922 342.726 279.134 304.802 267.787 C 306.158 178.532 306.586 89.2645 306.085 1.42109e-14 z"/>
<path transform="translate(0,0)" fill="rgb(248,232,200)" d="M 750.569 0 L 867.476 0 L 867.686 215.935 C 830.738 223.013 787.426 232.957 750.755 241.657 L 750.569 0 z"/>
<path transform="translate(0,0)" fill="rgb(248,232,200)" d="M 876.969 0 L 999.08 0 C 1000.1 62.3989 999.168 126.946 998.994 189.457 C 956.978 196.939 918.509 205.154 876.912 214.269 C 875.307 145.17 876.982 69.601 876.969 0 z"/>
<path transform="translate(0,0)" fill="rgb(248,232,200)" d="M 1008.03 0 L 1126.02 0 L 1125.97 162.111 C 1087.56 169.019 1046.46 178.582 1008.06 186.827 C 1007.38 165.142 1007.87 141.709 1007.9 119.866 L 1008.03 0 z"/>
<path transform="translate(0,0)" fill="rgb(208,175,134)" d="M 1384.88 0 L 1521.41 0 L 1521.89 117.377 C 1480.55 112.05 1425.92 105.664 1385.2 97.7474 C 1384.4 65.9792 1384.94 31.9447 1384.88 0 z"/>
<path transform="translate(0,0)" fill="rgb(248,232,200)" d="M 1134.79 0 L 1212.56 0 C 1213.74 6.44822 1214.85 12.9053 1215.82 19.3902 C 1221.73 59.193 1229.54 98.6892 1235.49 138.483 C 1202.08 145.312 1168.26 153.553 1135.03 159.901 L 1134.79 0 z"/>
<path transform="translate(0,0)" fill="rgb(208,175,134)" d="M 260.663 0 L 295.822 0 L 295.189 265.455 C 283.564 269.135 272.091 273.65 260.679 277.969 L 260.663 0 z"/>
<path transform="translate(0,0)" fill="rgb(208,175,134)" d="M 1531.02 0 L 1576.44 0 C 1583.26 42.6046 1589.77 85.2573 1595.98 127.955 C 1574.52 124.62 1553.01 121.515 1531.48 118.639 L 1531.02 0 z"/>
<path transform="translate(0,0)" fill="rgb(208,175,134)" d="M 1585.64 0 L 1620.25 0 C 1626.02 49.6485 1636.59 102.113 1644.65 151.879 C 1637.86 149.032 1630.09 146.853 1622.98 144.683 C 1618.14 146.226 1612.93 147.584 1608.01 148.962 C 1605.99 136.477 1604.98 122.739 1603.07 110.051 C 1597.62 73.7249 1593.1 35.9599 1585.64 0 z"/>
<path transform="translate(0,0)" fill="rgb(248,232,200)" d="M 1320.71 0 L 1374.87 0 C 1374.7 33.8215 1374.92 67.6439 1375.53 101.46 C 1363.84 104.176 1352.11 106.77 1340.36 109.244 C 1333.01 73.6826 1327.97 35.9347 1320.71 0 z"/>
<path transform="translate(0,0)" fill="rgb(208,175,134)" d="M 1715.83 0 L 1749.88 0 C 1749.34 41.2707 1749.91 82.3717 1749.16 123.759 C 1738.92 119.757 1726.61 115.952 1716.09 113.015 L 1715.83 0 z"/>
<path transform="translate(0,0)" fill="rgb(208,175,134)" d="M 1677.97 0 L 1704.91 0 L 1705.28 109.623 C 1701.74 110.861 1699.53 112.084 1696.18 113.818 L 1677.97 0 z"/>
<path transform="translate(0,0)" fill="rgb(208,175,134)" d="M 1821.87 923.877 C 1822.07 940.138 1822.38 958.634 1821.81 974.76 C 1820.87 968.215 1819.74 961.34 1819.33 954.786 C 1821.81 950.303 1820.36 932.369 1821.87 923.877 z"/>
<path transform="translate(0,0)" fill="rgb(208,175,134)" d="M 431.283 434.346 C 449.898 440.608 470.815 445.958 489.821 451.226 L 570.013 473.458 L 570.241 1340.84 L 570.882 1617.62 L 570.97 1702.27 C 570.977 1716.8 571.492 1736.8 570.537 1750.97 C 557.631 1745.54 543.697 1738.49 530.627 1732.62 L 431.187 1688.58 C 429.673 1675.92 430.226 1656.38 430.226 1642.95 L 430.272 1567.28 L 430.913 1310.97 L 431.283 434.346 z"/>
<path transform="translate(0,0)" fill="rgb(208,175,134)" d="M 304.781 399.4 C 316.818 401.843 336.33 407.912 348.609 411.31 C 373.458 417.98 398.235 424.915 422.937 432.113 C 424.734 478.407 423.183 533.98 423.105 581.03 L 423.047 846.77 L 422.119 1685.02 C 383.607 1668.13 343.52 1649.8 305.187 1632.17 L 306.183 829.581 L 306.264 557.22 C 306.105 505.422 306.846 450.913 304.781 399.4 z"/>
<path transform="translate(0,0)" fill="rgb(208,175,134)" d="M 1431.95 1371.13 C 1433.77 1373.72 1452.09 1499.01 1453.46 1510.53 C 1432.8 1519.82 1408.78 1529.09 1387.66 1537.76 L 1254.53 1592.2 C 1092.07 1658.98 929.264 1724.91 766.116 1789.98 L 750.996 1795.58 C 751.079 1739.62 750.845 1683.66 750.294 1627.71 L 1431.95 1371.13 z"/>
<path transform="translate(0,0)" fill="rgb(248,232,200)" d="M 1782.8 1402.18 C 1785.42 1417.68 1786.87 1433.5 1789.73 1448.87 C 1801.91 1453.6 1815.17 1455.95 1826.75 1460.39 L 1827.91 1462.85 C 1817.58 1467.58 1800.16 1473.48 1788.97 1477.92 C 1765.34 1487.47 1741.83 1497.31 1718.44 1507.44 C 1595.6 1560.99 1472.34 1613.54 1348.66 1665.11 L 944.996 1833.55 C 850.131 1873.09 749.063 1916.7 653.478 1953.4 C 653.766 1924.96 653.689 1896.52 653.247 1868.08 L 1457.71 1541.05 C 1459.76 1551.02 1460.82 1563.78 1462.83 1574.64 C 1483.16 1576.83 1503.24 1581.13 1523.78 1583.35 C 1539.07 1574.84 1559.91 1567.79 1573.23 1559.64 C 1572.46 1547.67 1565.94 1510.69 1563.95 1496.47 C 1581.25 1487.03 1610.54 1475.75 1629.58 1467.8 L 1705.48 1435.78 C 1731.14 1425.11 1757.89 1414.38 1782.8 1402.18 z"/>
<path transform="translate(0,0)" fill="rgb(248,232,200)" d="M 1875.51 1455.81 L 1877.34 1456.29 C 1878.61 1460.7 1878.69 1507.54 1878.78 1515.4 C 1756.53 1564.13 1633.06 1620.6 1512.04 1673.22 C 1343.87 1746.51 1175.23 1818.73 1006.14 1889.87 C 890.381 1939.78 774.106 1988.48 657.336 2035.98 L 654.895 2036.02 C 652.067 2030.57 653.989 1974.73 654.199 1964.32 C 688.695 1948.61 727.145 1935.46 762.394 1920.58 L 1137.82 1764.73 L 1520.31 1604.38 C 1618.9 1561.97 1716.99 1516.9 1817.17 1478.4 C 1836.68 1470.91 1856.09 1463.6 1875.51 1455.81 z"/>
<path transform="translate(0,0)" fill="rgb(208,175,134)" d="M 1330.77 731.251 C 1333.91 737.486 1348.16 830.528 1350.11 842.677 C 1295.42 858.924 1241.55 877.816 1187.22 895.034 L 767.999 1028.13 L 751.054 1033.34 L 750.582 899.015 C 818.523 878.08 890.323 858.674 958.876 839.14 L 1330.77 731.251 z"/>
<path transform="translate(0,0)" fill="rgb(248,232,200)" d="M 995.885 1059.06 L 996.811 1059.32 C 998.935 1062.82 997.981 1209.02 997.979 1222.85 L 997.288 1525.17 C 960.197 1537.23 915.325 1555.48 878.326 1569.33 C 877.367 1563.07 877.595 1535.78 877.546 1528.02 L 877.206 1435.63 L 876.982 1097.76 C 914.395 1084.12 956.997 1072.45 995.885 1059.06 z"/>
<path transform="translate(0,0)" fill="rgb(248,232,200)" d="M 866.093 1101.08 C 866.512 1101.51 866.931 1101.94 867.35 1102.37 C 869.661 1223.1 867.299 1466.73 868.161 1573.68 C 843.142 1582.47 818.065 1592.61 793.162 1601.79 C 780.307 1606.52 767.347 1612.06 754.23 1615.92 L 752.094 1615.89 C 749.093 1611.31 750.76 1176.61 750.952 1138.77 L 866.093 1101.08 z"/>
<path transform="translate(0,0)" fill="rgb(248,232,200)" d="M 1122.55 1017.96 L 1123.34 1018.14 C 1125.94 1021.27 1124.86 1070.9 1124.88 1077.52 L 1124.98 1185.56 L 1124.79 1476.38 C 1087.5 1491.37 1047.25 1505.4 1009.41 1520.1 L 1008.25 1520.06 C 1006.54 1517.65 1006.82 1516.24 1006.82 1512.71 C 1006.91 1472.35 1006.89 1431.88 1006.81 1391.53 L 1006.73 1055.98 C 1045.15 1042.92 1084 1030.85 1122.55 1017.96 z"/>
<path transform="translate(0,0)" fill="rgb(248,232,200)" d="M 1250.93 977.185 C 1253.59 980.802 1252.13 1384 1252.01 1428.27 C 1213.22 1442.34 1174.62 1456.9 1136.21 1471.97 L 1135.72 1471.55 C 1132.41 1464.2 1133.72 1048.92 1133.9 1014.78 C 1168.13 1002.02 1214.99 988.796 1250.93 977.185 z"/>
<path transform="translate(0,0)" fill="rgb(248,232,200)" d="M 995.192 402.225 L 998.415 401.867 C 1000.51 405.689 998.696 782.619 998.869 817.272 C 959.341 828.577 919.903 840.727 880.279 851.515 L 878.107 851.58 C 875.832 847.592 876.88 812.349 876.863 804.54 L 876.695 714.373 L 876.951 431.9 C 914.372 421.173 957.188 410.787 995.192 402.225 z"/>
<path transform="translate(0,0)" fill="rgb(208,175,134)" d="M 1235.88 148.361 C 1238.78 152.006 1250.48 231.059 1251.92 240.41 C 1186.61 254.188 1118.27 271.528 1053.02 286.923 C 956.72 309.317 860.554 332.279 764.525 355.806 C 760.877 356.364 754.694 357.935 750.886 358.766 C 750.43 323.229 750.701 287.15 750.656 251.571 C 766.139 247.213 787.029 243.136 802.91 239.714 L 910.954 217.167 L 1235.88 148.361 z"/>
<path transform="translate(0,0)" fill="rgb(248,232,200)" d="M 865.323 434.22 L 866.525 434.488 C 869.335 441.555 867.271 611.515 867.212 630.681 L 867.201 855.066 C 830.61 864.602 790.171 877.453 753.412 887.925 L 752.239 887.86 C 750.64 885.775 750.837 884.211 750.834 881.075 C 750.784 833.183 750.867 785.035 750.928 737.176 L 750.848 462.668 C 757.673 460.746 765.337 459.092 772.284 457.561 C 803.421 450.699 834.205 440.985 865.323 434.22 z"/>
<path transform="translate(0,0)" fill="rgb(248,232,200)" d="M 1364.56 939.941 L 1366.01 940.264 C 1367.96 943.625 1368.75 956.935 1368.75 961.056 C 1368.78 1101.47 1371.71 1242.87 1369.68 1383.24 C 1335.57 1397.24 1300.33 1409.61 1265.9 1423.03 C 1262.48 1423.85 1263.79 1424.26 1261.5 1422.89 C 1260.31 1411.92 1260.95 1386.53 1260.93 1374.69 L 1260.98 1277.79 L 1260.9 973.761 C 1295.59 962.919 1330.15 951.645 1364.56 939.941 z"/>
<path transform="translate(0,0)" fill="rgb(248,232,200)" d="M 1249.67 337.274 C 1255.49 343.553 1252.87 695.238 1252.71 743.334 L 1136.22 778.042 L 1135.31 777.572 C 1133.14 774.66 1134.14 743.293 1134.16 737.394 L 1134.31 661.426 L 1134.06 482.267 C 1134.23 444.055 1134.01 405.842 1133.4 367.634 C 1166.05 357.124 1215.86 345.481 1249.67 337.274 z"/>
<path transform="translate(0,0)" fill="rgb(248,232,200)" d="M 1121.3 370.205 C 1124 369.93 1122.92 369.501 1124.8 370.998 C 1125.66 385.825 1125.06 406.096 1125.06 421.418 L 1125.06 513.949 L 1124.99 781.064 C 1086.69 791.769 1048.47 802.731 1010.32 813.949 L 1008.17 813.643 C 1005.74 808.258 1008.02 681.869 1008.05 665.149 L 1008.33 399.236 C 1042.21 388.474 1086.33 378.261 1121.3 370.205 z"/>
<path transform="translate(0,0)" fill="rgb(208,175,134)" d="M 260.528 386.259 C 270.828 388.208 284.955 393.607 295.004 397.34 C 296.802 443.879 296.089 493.302 296.151 540.104 L 296.052 791.36 L 295.294 1632.18 L 284.186 1637.7 C 276.556 1642.05 268.864 1646.28 261.111 1650.41 L 260.904 804.266 L 260.841 518.578 L 260.534 435.79 C 260.421 420.544 259.712 400.974 260.528 386.259 z"/>
<path transform="translate(0,0)" fill="rgb(208,175,134)" d="M 168.713 1652.48 C 197.757 1666.4 230.44 1679.71 260.261 1693.54 L 643.927 1868.53 L 643.578 1952.54 C 640.158 1951.93 619.754 1942.36 615.407 1940.32 L 536.928 1902.65 L 280.244 1781.67 C 243.111 1764.18 205.631 1748.23 168.867 1729.82 L 168.713 1652.48 z"/>
<path transform="translate(0,0)" fill="rgb(248,232,200)" d="M 1354.64 872.183 C 1357.09 876.313 1363.69 921.209 1365.17 929.537 C 1339.61 936.786 1312.63 946.323 1287.12 954.447 L 1110.92 1011.15 C 1027.92 1037.6 945.084 1064.55 862.409 1092 C 827.924 1103.28 793.779 1113.67 759.348 1125.46 L 750.905 1128.46 L 750.963 1066.74 C 778.001 1058.45 805.271 1049.02 832.387 1040.49 C 953.921 1002.36 1075.23 963.515 1196.31 923.965 L 1308.31 887.609 C 1323.59 882.634 1339.39 876.789 1354.64 872.183 z"/>
<path transform="translate(0,0)" fill="rgb(208,175,134)" d="M 168.925 1740.29 C 204.233 1758.95 246.722 1776.98 283.113 1794.23 L 554.519 1922.31 C 583.398 1936.05 616.282 1949.82 644.002 1964.49 L 643.813 2036.68 C 610.938 2023.33 562.835 1998.39 529.777 1982.25 L 358.643 1899.18 C 319.642 1880 279.679 1862.19 240.577 1843.05 C 216.325 1831.17 192.74 1821.05 168.933 1807.72 L 168.925 1740.29 z"/>
<path transform="translate(0,0)" fill="rgb(248,232,200)" d="M 1252.41 269.11 L 1255.5 268.907 C 1257.03 270.469 1264.39 316.173 1265.61 323.059 C 1231.42 330.608 1193.93 341.672 1159.02 349.986 C 1026.62 381.516 894.144 417.988 761.857 449.725 L 751.16 451.929 C 750.623 432.308 750.94 411.459 750.913 391.747 C 810.863 375.337 877.77 360.529 938.49 346.087 L 1252.41 269.11 z"/>
<path transform="translate(0,0)" fill="rgb(208,175,134)" d="M 259.999 291.05 C 327.023 309.585 394.171 327.67 461.438 345.305 C 496.108 354.598 536.526 364.013 570.115 375.44 L 570.073 463.255 L 260.16 375.471 C 259.938 347.331 259.884 319.19 259.999 291.05 z"/>
<path transform="translate(0,0)" fill="rgb(208,175,134)" d="M 1678.75 1114.09 C 1679.55 1118.46 1678.85 1159.31 1678.79 1166.44 L 1678.29 1287.81 C 1643.37 1301.98 1608.38 1315.97 1573.3 1329.77 C 1563.98 1325.38 1537.14 1318.21 1533.7 1311.75 C 1531.28 1300.27 1529.6 1286.8 1527.61 1274.99 L 1511.52 1175.24 C 1566.89 1153.85 1622.64 1133.46 1678.75 1114.09 z"/>
<path transform="translate(0,0)" fill="rgb(208,175,134)" d="M 1678.71 834.144 C 1680.81 836.694 1678.09 996.041 1678.02 1012.9 L 1532.25 1064.75 C 1531.09 1059.74 1531.33 1019.35 1531.31 1012.23 C 1531.35 969.461 1531.16 926.689 1530.74 883.919 L 1678.71 834.144 z"/>
<path transform="translate(0,0)" fill="rgb(208,175,134)" d="M 1520.99 266.243 C 1521.94 267.827 1521.94 445.419 1521.98 460.326 C 1483.37 472.605 1440.99 482.609 1403.2 495.669 C 1401.66 486.877 1400.25 478.063 1398.98 469.23 C 1395.56 443.867 1390.28 418.734 1386.39 393.492 C 1381.82 363.866 1377.97 334.734 1372.28 305.227 C 1420.81 291.418 1471.97 279.364 1520.99 266.243 z"/>
<path transform="translate(0,0)" fill="rgb(208,175,134)" d="M 1655.38 523.068 L 1657.22 523.849 C 1659.94 531.733 1663.38 566.778 1664.69 576.387 C 1670.55 619.295 1676.64 662.171 1682.96 705.013 C 1652.58 694.969 1621.98 685.594 1591.19 676.897 C 1573.87 671.616 1549.3 663.067 1531.95 661.61 L 1531.91 559.28 C 1544.2 554.881 1562.63 550.089 1575.61 546.352 C 1602.25 538.757 1628.84 530.995 1655.38 523.068 z"/>
<path transform="translate(0,0)" fill="rgb(208,175,134)" d="M 1537.52 671.076 C 1546.93 672.649 1580.26 683.951 1592.06 687.605 C 1622.81 696.898 1653.61 706.007 1684.47 714.932 C 1685.81 719.843 1686.63 725.175 1687.55 730.209 C 1646.16 741.424 1597.01 758.408 1555.25 771.389 C 1521.31 782.371 1487.44 791.795 1453.53 803.411 C 1448.92 768.277 1441.64 735.306 1436.5 700.798 L 1537.52 671.076 z"/>
<path transform="translate(0,0)" fill="rgb(208,175,134)" d="M 1608.37 245.164 L 1609.4 245.266 C 1612.78 249.566 1636.83 408.066 1639.5 426.513 L 1555.82 450.653 C 1547.85 452.756 1539.9 454.9 1531.96 457.087 C 1530.36 438.187 1531.16 409.349 1531.17 389.356 L 1531.58 264.136 C 1557.09 257.444 1582.68 251.119 1608.37 245.164 z"/>
<path transform="translate(0,0)" fill="rgb(208,175,134)" d="M 1382.54 109.126 C 1394.75 108.546 1435.23 115.971 1449.8 118.13 C 1498.27 125.315 1548.56 130.888 1596.71 138.424 C 1597.57 142.893 1598.21 147.716 1598.9 152.242 C 1573.22 158.263 1546.79 165.244 1521.02 171.5 L 1357.7 211.729 C 1355.15 202.705 1353.18 189.373 1351.51 179.875 C 1347.9 159.636 1344.61 139.341 1341.63 118.999 C 1355.3 115.84 1368.94 112.549 1382.54 109.126 z"/>
<path transform="translate(0,0)" fill="rgb(248,232,200)" d="M 1689.5 450.048 L 1690.74 450.243 C 1692.97 453.947 1699.08 492.339 1700.27 499.316 C 1674.94 506.035 1646.12 515.42 1620.58 522.983 C 1553.65 543.128 1486.56 562.763 1419.33 581.884 L 1418.22 581.809 C 1415.29 579.207 1409.96 539.353 1408.61 531.707 C 1421.28 527.046 1436.69 523.027 1449.89 519.24 L 1514.17 500.766 L 1689.5 450.048 z"/>
<path transform="translate(0,0)" fill="rgb(248,232,200)" d="M 1643.5 173.124 C 1645.08 172.831 1644.69 172.996 1646.43 173.467 C 1649.66 179.518 1653.42 213.536 1655.26 223.439 C 1561.35 245.911 1467.69 269.402 1374.29 293.908 L 1371.64 293.911 C 1368.37 290.28 1363.38 251.531 1362.47 243.862 C 1372.89 240.602 1384.57 237.724 1395.25 235.213 C 1478.25 215.694 1560.65 193.068 1643.5 173.124 z"/>
<path transform="translate(0,0)" fill="rgb(248,232,200)" d="M 1261.48 333.725 C 1263.34 333.985 1264.43 334.247 1266.25 334.661 C 1268.32 337.245 1279.79 414.046 1281.26 423.128 L 1312.93 617.001 C 1317.98 647.576 1326.69 691.169 1329.51 720.466 C 1324.47 722.383 1317.73 724.18 1312.42 725.749 C 1295.72 730.923 1278.91 735.76 1262.01 740.256 C 1260.34 713.35 1261.23 677.775 1261.35 649.992 L 1262.06 492.201 L 1261.83 386.724 C 1261.73 374.755 1260.38 344.403 1261.48 333.725 z"/>
<path transform="translate(0,0)" fill="rgb(248,232,200)" d="M 1734.02 753.076 L 1734.82 753.149 C 1735.3 753.507 1735.77 753.864 1736.25 754.221 C 1738.04 767.236 1740.97 791.15 1743.12 802.933 C 1652.65 832.59 1559.75 865.052 1469.22 893.203 L 1467.9 892.856 C 1466.07 889.064 1460.71 851.452 1459.51 843.809 C 1480.71 833.513 1521.28 822.292 1545.14 814.412 C 1607.88 793.285 1670.84 772.839 1734.02 753.076 z"/>
<path transform="translate(0,0)" fill="rgb(208,175,134)" d="M 1453.24 1521.89 C 1454.32 1522.12 1453.57 1521.91 1455.3 1522.99 C 1456.07 1526 1456.68 1526.82 1455.56 1529.64 C 1451.31 1534.04 1410.17 1549.6 1401.12 1553.33 L 1271.21 1606.47 C 1064.58 1692.84 856.972 1776.84 648.426 1858.46 C 632.375 1853.45 607.76 1841.27 591.866 1834 L 503.893 1794.12 L 178.67 1645.95 C 176.871 1645.07 176.812 1644.95 175.175 1643.78 C 177.371 1640.54 186.9 1638.52 191.194 1637.27 C 198.208 1646.6 257.408 1670.23 273.058 1677.18 L 386.608 1728.5 L 588.543 1820.62 C 607.888 1829.26 627.001 1838.52 646.489 1846.8 C 661.185 1843.53 703.581 1825.33 719.773 1818.8 L 844.544 1769.42 C 1047.86 1687.95 1250.77 1605.44 1453.24 1521.89 z"/>
<path transform="translate(0,0)" fill="rgb(248,232,200)" d="M 1770.98 1020.02 C 1773.88 1023.01 1778.49 1061.36 1779.41 1068.43 C 1754.29 1075.54 1721.54 1088.64 1696.02 1097.68 C 1633.83 1119.31 1571.97 1141.87 1510.45 1165.35 C 1507.84 1157.33 1503.37 1126.25 1501.77 1116.4 C 1556.73 1096.07 1612.6 1077.48 1667.51 1056.99 C 1699.88 1044.91 1739.76 1033.51 1770.98 1020.02 z"/>
<path transform="translate(0,0)" fill="rgb(248,232,200)" d="M 1805.96 1279 L 1807.69 1279.18 C 1809.31 1281.35 1814.1 1312.07 1815.02 1317.29 C 1782.9 1328.95 1751.2 1342.45 1719.51 1355.09 C 1663.94 1377.09 1608.58 1399.61 1553.45 1422.67 L 1552.62 1422.66 C 1550.99 1420.61 1546.04 1387.84 1544.92 1381.86 C 1553.42 1377.77 1567.2 1372.83 1576.39 1369.14 C 1597.2 1360.69 1618.09 1352.39 1639.03 1344.26 L 1805.96 1279 z"/>
<path transform="translate(0,0)" fill="rgb(208,175,134)" d="M 298.421 1641.05 C 326.923 1651.13 366.668 1671.4 395.468 1684.05 L 513.705 1736.36 C 532.372 1744.79 552.619 1753.5 570.771 1762.64 L 570.825 1802.05 L 546.416 1790.87 L 386.067 1717.65 C 344.517 1698.63 304.491 1679.24 262.29 1661.46 C 272.878 1656.28 287.448 1647.14 298.421 1641.05 z"/>
<path transform="translate(0,0)" fill="rgb(208,175,134)" d="M 1518.57 563.058 L 1521.37 563.171 C 1523.2 568.343 1522.12 652.644 1522.15 664.289 C 1498.84 672.261 1474.86 678.779 1451.41 686.392 C 1446.23 688.072 1441.25 689.629 1435.86 690.467 C 1433.76 688.55 1434.21 687.279 1433.52 683.764 C 1430.21 656.642 1423.51 620.053 1418.69 592.88 C 1451.9 582.682 1485.2 572.741 1518.57 563.058 z"/>
<path transform="translate(0,0)" fill="rgb(248,232,200)" d="M 1379.32 1019.54 C 1380.48 1024.58 1380.98 1028.93 1381.65 1034.04 C 1387.1 1062.76 1389.98 1092.68 1394.84 1121.38 C 1402.35 1165.68 1409.16 1209.12 1415.5 1253.6 L 1425.01 1319.43 C 1426.79 1331.48 1428.96 1348.28 1431.83 1359.87 C 1424.64 1364.39 1390.45 1376.2 1380.29 1379.9 L 1379.77 1258.37 C 1379.73 1240.02 1378.89 1214.1 1379.85 1196.22 C 1377.95 1171.85 1379.2 1132.17 1379.26 1107.22 C 1379.32 1079.85 1378.09 1046.08 1379.32 1019.54 z"/>
<path transform="translate(0,0)" fill="rgb(208,175,134)" d="M 1379.32 1019.54 C 1380.48 1024.58 1380.98 1028.93 1381.65 1034.04 C 1377.99 1040.3 1382.08 1175.84 1379.85 1196.22 C 1377.95 1171.85 1379.2 1132.17 1379.26 1107.22 C 1379.32 1079.85 1378.09 1046.08 1379.32 1019.54 z"/>
<path transform="translate(0,0)" fill="rgb(208,175,134)" d="M 1698.52 509.926 L 1700.54 510.691 C 1702.55 516.903 1703.43 527.208 1704.48 534.139 C 1707.16 551.143 1709.71 568.168 1712.11 585.214 C 1718.96 633.489 1726.13 681.718 1733.61 729.898 C 1725.26 726.213 1718.45 724.365 1709.64 722.178 L 1708.46 722.047 C 1702.52 721.346 1701.84 721.515 1695.85 722.695 C 1684.74 658.16 1675.54 584.928 1667.22 519.944 C 1677.73 516.86 1688.17 513.52 1698.52 509.926 z"/>
<path transform="translate(0,0)" fill="rgb(208,175,134)" d="M 1653.95 234.212 C 1656.06 234.008 1655.02 233.8 1657.01 235.08 C 1659.66 241.255 1666.84 293.583 1668.3 302.929 L 1689.37 431.811 C 1680.69 429.022 1671.38 425.415 1662.75 422.265 C 1656.65 420.784 1654.88 421.353 1648.83 423.029 C 1639.33 362.046 1630.76 303.296 1619.96 242.49 C 1631.13 239.61 1642.72 236.946 1653.95 234.212 z"/>
<path transform="translate(0,0)" fill="rgb(208,175,134)" d="M 1517.67 887.953 L 1520.4 887.998 C 1522 893.159 1521.19 935.424 1521.21 944.674 C 1521.28 985.915 1521.57 1027.16 1522.06 1068.39 C 1513.5 1071.38 1504.88 1074.22 1496.21 1076.91 C 1494.97 1072.18 1494.07 1065.87 1493.21 1060.93 C 1484.39 1010.13 1477.24 956.175 1469.38 904.868 L 1517.67 887.953 z"/>
<path transform="translate(0,0)" fill="rgb(208,175,134)" d="M 1743.22 814.18 C 1746.62 818.127 1766.99 979.657 1769.55 999.02 C 1757.21 994.119 1749.22 993.058 1736.17 990.883 C 1734.28 991.323 1733.12 992.705 1730.49 993.369 C 1722.91 938.742 1714.54 879.697 1705.33 825.457 C 1716.62 821.497 1731.51 817.582 1743.22 814.18 z"/>
<path transform="translate(0,0)" fill="rgb(208,175,134)" d="M 1351.75 852.261 C 1353.09 854.857 1353.11 858.109 1353.14 860.913 C 1346.38 866.973 1183.17 917.266 1160.76 924.504 L 752.378 1055.69 C 750.218 1052.49 750.47 1049.41 751.982 1046.14 C 760.349 1039.36 819.666 1022.82 832.983 1018.66 L 976.9 973.06 L 1191.07 904.583 C 1244.48 886.688 1298.04 869.247 1351.75 852.261 z"/>
<path transform="translate(0,0)" fill="rgb(208,175,134)" d="M 1778.1 1079.02 C 1779.75 1079.17 1778.87 1078.93 1780.66 1080 C 1781.47 1086.95 1782.54 1094.03 1783.6 1100.96 C 1791.83 1154.5 1797.19 1208.37 1806.61 1261.73 C 1799.14 1259.04 1788.88 1256.36 1781.08 1254.09 C 1776.87 1252.88 1774.22 1252.58 1769.85 1251.96 C 1760.97 1198.38 1754.85 1144.98 1745.01 1091.12 C 1756.25 1086.59 1766.65 1082.95 1778.1 1079.02 z"/>
<path transform="translate(0,0)" fill="rgb(208,175,134)" d="M 1731.36 1362.96 C 1736.45 1365.35 1741.75 1379.24 1751.06 1385.4 C 1734.66 1391.27 1716.24 1399.76 1699.79 1406.35 C 1656.26 1423.38 1613 1441.1 1570.03 1459.5 L 1559.23 1463.99 C 1556.84 1453.56 1555.26 1444.32 1553.52 1433.81 C 1566.29 1427.41 1597.04 1416.3 1611.71 1410.53 C 1651.69 1394.91 1691.57 1379.05 1731.36 1362.96 z"/>
<path transform="translate(0,0)" fill="rgb(208,175,134)" d="M 1250.6 250.179 L 1252.08 250.057 C 1255.48 252.774 1256.15 253.056 1254.54 256.752 C 1247 262.281 1161.88 281.056 1146.91 284.707 L 899.259 344.891 C 852.37 356.252 799.814 367.534 754.215 381.097 C 752.5 381.711 753.516 381.523 751.118 381.266 C 749.48 378.116 750.218 373.605 750.405 369.878 C 832.365 347.86 920.805 328.026 1003.81 308.427 C 1085.96 288.538 1168.22 269.121 1250.6 250.179 z"/>
<path transform="translate(0,0)" fill="rgb(208,175,134)" d="M 1717.43 1099.93 L 1718.61 1100.23 C 1720.59 1105.08 1719.85 1250.76 1719.96 1271.82 C 1710.78 1274.89 1701.13 1278.64 1692 1282.01 L 1690.1 1282.38 C 1687.37 1277.21 1689.03 1127.84 1689.02 1111.06 C 1697.21 1107.05 1708.67 1103.16 1717.43 1099.93 z"/>
<path transform="translate(0,0)" fill="rgb(248,232,200)" d="M 1741.78 1001.25 C 1747.63 1000.95 1763.99 1006.95 1771.43 1008.87 C 1739.61 1023.22 1697.67 1036.44 1664.31 1048.07 L 1519.43 1099.93 C 1512.96 1102.55 1507.11 1104.67 1500.51 1106.95 L 1497.55 1088.07 C 1510.72 1082.25 1532.9 1074.91 1547.26 1069.69 C 1584.75 1055.93 1622.43 1042.68 1660.29 1029.95 C 1680.83 1022.83 1723.3 1005.39 1741.78 1001.25 z"/>
<path transform="translate(0,0)" fill="rgb(248,232,200)" d="M 1706.2 732.976 C 1714.84 733.36 1727.42 738.793 1735.79 742.055 C 1707.39 753.248 1663.12 765.69 1632.91 775.213 L 1479.1 824.726 C 1472.21 827.392 1465.35 830.129 1458.51 832.936 C 1457.05 826.706 1456.35 819.86 1455.53 813.483 C 1475.06 805.522 1504.7 797.284 1525.49 791.038 C 1562.78 779.657 1599.99 768.012 1637.12 756.106 C 1659.4 749.01 1684.94 741.881 1706.2 732.976 z"/>
<path transform="translate(0,0)" fill="rgb(248,232,200)" d="M 1772.32 1261.54 C 1778.72 1262.17 1795.18 1268.56 1803.83 1270.2 C 1724.69 1298.3 1643.01 1332.36 1564.24 1363.02 C 1558.73 1365.55 1549.61 1368.63 1543.7 1370.83 L 1540.91 1355.43 C 1550.96 1350.49 1561.29 1346.17 1571.64 1341.9 C 1638.11 1314.41 1705.13 1287.1 1772.32 1261.54 z"/>
<path transform="translate(0,0)" fill="rgb(248,232,200)" d="M 1655.1 432.202 C 1661.93 431.396 1677.39 438.194 1684.59 440.947 C 1598.86 464.567 1513.1 491.49 1427.53 515.051 L 1407.14 521.388 C 1405.95 516.134 1405.3 511.072 1404.55 505.753 C 1413.27 501.985 1429.78 497.558 1439.19 494.841 L 1500.09 477.413 C 1549.24 463.143 1606.06 444.461 1655.1 432.202 z"/>
<path transform="translate(0,0)" fill="rgb(208,175,134)" d="M 1713.25 225.146 C 1725.8 221.815 1736.85 218.135 1749.18 214.023 L 1748.99 439.185 L 1746.22 438.569 C 1734.06 367.96 1726.9 296.767 1713.25 225.146 z"/>
<path transform="translate(0,0)" fill="rgb(208,175,134)" d="M 296.622 276.034 C 303.569 276.227 352.207 291.169 363.354 294.168 L 488.502 328.013 C 514.602 334.901 544.313 341.714 569.74 349.73 L 569.694 364.495 L 553.359 359.521 C 500.446 344.329 445.819 331 392.572 316.534 C 353.042 305.794 311.678 293.474 272.052 283.916 C 280.137 280.973 288.392 278.547 296.622 276.034 z"/>
<path transform="translate(0,0)" fill="rgb(208,175,134)" d="M 1813.69 1328.01 L 1814.94 1328.13 C 1815.47 1328.52 1816 1328.91 1816.53 1329.3 C 1822.06 1361.96 1828.34 1420.31 1833.66 1449.89 C 1827.62 1448.62 1818.26 1445.61 1812.08 1443.81 L 1799.42 1440.41 C 1793.63 1407.61 1788.87 1373.31 1783.45 1340.22 C 1793.45 1335.97 1803.53 1331.89 1813.69 1328.01 z"/>
<path transform="translate(0,0)" fill="rgb(208,175,134)" d="M 1693.25 828.321 L 1694.66 828.917 C 1697.8 832.023 1718.89 979.174 1721.56 997.194 L 1710.68 1001.08 L 1688.58 1009.12 C 1689.06 952.158 1688.66 895.105 1689.74 838.153 C 1689.86 832.211 1689.55 831.834 1693.25 828.321 z"/>
<path transform="translate(0,0)" fill="rgb(208,175,134)" d="M 1621.59 156.14 C 1627.53 155.928 1640.08 160.164 1645.42 163.002 C 1627.35 167.985 1607.02 171.824 1588.52 176.521 L 1378.43 229.142 L 1360.38 233.939 L 1358.46 222 C 1445.42 199.146 1534.22 178.868 1621.59 156.14 z"/>
<path transform="translate(0,0)" fill="rgb(208,175,134)" d="M 1730.49 1094.5 L 1734.99 1094.86 C 1738.92 1098.95 1756.51 1237.1 1759.69 1255.8 L 1752 1259 C 1744.84 1261.87 1737.98 1264.2 1730.69 1266.69 C 1728.77 1235.63 1730.43 1197.38 1729.51 1165.67 C 1729.16 1153.82 1728.96 1103.62 1730.49 1094.5 z"/>
<path transform="translate(0,0)" fill="rgb(248,232,200)" d="M 1747.19 153.195 L 1748.2 153.359 C 1749.84 157.128 1749.43 197.472 1749.48 203.915 C 1744.09 205.551 1714.72 215.178 1711.46 213.665 L 1704.51 163.925 C 1718.7 160.217 1732.93 156.64 1747.19 153.195 z"/>
<path transform="translate(0,0)" fill="rgb(208,175,134)" d="M 1768.81 1391.11 C 1771.86 1390.63 1770.85 1390.76 1774.06 1391.37 L 1774.72 1392.83 C 1769.34 1399.79 1588.28 1473.66 1566.43 1483.02 C 1564.86 1483.75 1564.9 1483.56 1563.11 1483.81 C 1560.64 1480.86 1560.11 1478.87 1561.73 1475.29 C 1571.66 1469.02 1612.59 1453.14 1626.2 1447.47 C 1673.21 1427.9 1720.52 1407.13 1768.81 1391.11 z"/>
<path transform="translate(0,0)" fill="rgb(208,175,134)" d="M 1771.56 1344.76 C 1773.08 1344.65 1772.15 1344.57 1774.23 1345.6 C 1776.5 1353.62 1779.26 1376.86 1780.77 1386.59 C 1776.87 1384.77 1772.31 1383.2 1768.24 1381.68 C 1751.8 1378.03 1756.92 1367.4 1755.34 1352.7 L 1771.56 1344.76 z"/>
<path transform="translate(0,0)" fill="rgb(248,232,200)" d="M 1736.42 132.18 C 1741.6 131.818 1748.18 132.406 1750.77 137.375 L 1749.89 139.452 C 1743.9 144.922 1722.37 148.992 1713.23 151.245 L 1703.54 153.876 L 1701.43 141.469 L 1736.42 132.18 z"/>
<path transform="translate(0,0)" fill="rgb(208,175,134)" d="M 1536.2 1326.77 C 1542.09 1328.52 1554.51 1331.19 1557.68 1335.47 C 1555.96 1338.43 1555.19 1337.94 1551.3 1339.72 L 1539.48 1344.9 C 1538.07 1338.94 1537.19 1332.83 1536.2 1326.77 z"/>
<path transform="translate(0,0)" fill="rgb(208,175,134)" d="M 1698.08 119.733 C 1704.52 119.647 1717.47 122.286 1722.29 126.406 L 1719.76 127.683 C 1713.12 129.402 1706.01 133.313 1699.99 129.94 C 1697.78 126.442 1698.21 124.073 1698.08 119.733 z"/>
<path transform="translate(0,0)" fill="rgb(208,175,134)" d="M 1826.75 1460.39 C 1835.94 1458.02 1875.59 1440.5 1879.98 1442.22 C 1879.67 1444.91 1880.2 1443.79 1878.09 1445.5 C 1867.51 1446.74 1839.85 1458.83 1827.91 1462.85 L 1826.75 1460.39 z"/>
<path transform="translate(0,0)" fill="rgb(248,232,200)" d="M 1879.09 1400.87 C 1878.94 1393.66 1874.62 1375.1 1876.46 1370.57 L 1878.66 1369.91 C 1880.31 1370.94 1881.28 1371 1881.36 1373.29 C 1881.7 1383.14 1880.56 1390.88 1881.11 1401.01 L 1879.09 1400.87 z"/>
<path transform="translate(0,0)" fill="rgb(113,79,48)" d="M 1879.09 1400.87 L 1881.11 1401.01 C 1882.06 1404.98 1882.49 1411.47 1881.89 1415.57 L 1881.07 1416.09 C 1879.17 1412.24 1879.41 1405.5 1879.09 1400.87 z"/>
<path transform="translate(0,0)" fill="rgb(208,175,134)" d="M 1746.22 438.569 L 1748.99 439.185 C 1748.99 442.153 1749.41 447.11 1748.08 449.422 C 1746.54 445.232 1746.61 443.089 1746.22 438.569 z"/>
</svg>